<mxfile host="app.diagrams.net" modified="2023-09-05T07:32:30.887Z" agent="Mozilla/5.0 (Macintosh; Intel Mac OS X 10_15_7) AppleWebKit/537.36 (KHTML, like Gecko) Chrome/116.0.0.0 Safari/537.36" etag="wI2hsOdLo0Ze1aqrJOFa" version="21.7.2" type="github">
  <diagram name="페이지-1" id="xntE4QRQAVohVYgku4q2">
    <mxGraphModel dx="1434" dy="759" grid="1" gridSize="10" guides="1" tooltips="1" connect="1" arrows="1" fold="1" page="1" pageScale="1" pageWidth="827" pageHeight="1169" math="0" shadow="0">
      <root>
        <mxCell id="0" />
        <mxCell id="1" parent="0" />
        <mxCell id="lN2TJ2HgKJQQcKIHXumm-1" value="&lt;b style=&quot;font-size: 16px;&quot;&gt;병원(의사)&lt;br&gt;&lt;/b&gt;&lt;br&gt;병원&lt;br&gt;&lt;br&gt;유저(의사, 관리자)" style="rounded=0;whiteSpace=wrap;html=1;" vertex="1" parent="1">
          <mxGeometry x="90" y="151" width="190" height="210" as="geometry" />
        </mxCell>
        <mxCell id="lN2TJ2HgKJQQcKIHXumm-2" value="&lt;b&gt;&lt;font style=&quot;font-size: 16px;&quot;&gt;환자&lt;/font&gt;&lt;/b&gt;" style="rounded=0;whiteSpace=wrap;html=1;" vertex="1" parent="1">
          <mxGeometry x="470" y="150" width="190" height="210" as="geometry" />
        </mxCell>
        <mxCell id="lN2TJ2HgKJQQcKIHXumm-3" value="&lt;font style=&quot;font-weight: bold; font-size: 16px;&quot;&gt;백오피스&lt;/font&gt;&lt;br&gt;&lt;br&gt;&lt;font style=&quot;font-size: 13px;&quot;&gt;문진&lt;br&gt;&lt;br&gt;&lt;/font&gt;" style="rounded=0;whiteSpace=wrap;html=1;" vertex="1" parent="1">
          <mxGeometry x="300" y="450" width="190" height="210" as="geometry" />
        </mxCell>
      </root>
    </mxGraphModel>
  </diagram>
</mxfile>
